<svg width="22" height="41" viewBox="0 0 22 41" fill="none" xmlns="http://www.w3.org/2000/svg">
<path opacity="0.3" d="M19.9587 20.4965L0.251672 39.5856C0.171938 39.6621 0.108642 39.7532 0.0654425 39.8535C0.0222433 39.9539 4.64366e-07 40.0616 4.64366e-07 40.1704C4.64366e-07 40.2791 0.0222433 40.3868 0.0654425 40.4872C0.108642 40.5876 0.171938 40.6786 0.251672 40.7551C0.331439 40.8327 0.426223 40.8943 0.530588 40.9363C0.634953 40.9784 0.746847 41 0.859852 41C0.972856 41 1.08475 40.9784 1.18911 40.9363C1.29348 40.8943 1.38826 40.8327 1.46803 40.7551L21.7475 21.0912C21.8275 21.0138 21.891 20.9219 21.9344 20.8207C21.9777 20.7195 22 20.611 22 20.5015C22 20.3919 21.9777 20.2834 21.9344 20.1822C21.891 20.081 21.8275 19.9891 21.7475 19.9117L1.46803 0.237876C1.30326 0.0842936 1.08329 -0.00102426 0.85474 7.46231e-06C0.686099 0.00154086 0.521659 0.0511971 0.38194 0.14278C0.24222 0.234363 0.133411 0.363813 0.0690882 0.514982C0.00476592 0.66615 -0.0122196 0.832339 0.0202509 0.992809C0.0527214 1.15328 0.133209 1.30093 0.251672 1.41732L19.9587 20.4965Z" fill="#283645"/>
</svg>
